HIERARCHY
ROOT joint_0
{
	OFFSET 0.000000 0.000000 0.000000
	CHANNELS 6 Xposition Yposition Zposition Zrotation Yrotation Xrotation 
	JOINT joint_1
	{
		OFFSET 1.363060 -1.794630 0.839290
		CHANNELS 3 Zrotation Yrotation Xrotation
		JOINT joint_2
		{
			OFFSET 2.448110 -6.726130 0.000000
			CHANNELS 3 Zrotation Yrotation Xrotation
			JOINT joint_3
			{
				OFFSET 2.562200 -7.039590 0.000000
				CHANNELS 3 Zrotation Yrotation Xrotation
				JOINT joint_4
				{
					OFFSET 0.157640 -0.433110 2.322550
					CHANNELS 3 Zrotation Yrotation Xrotation
					End Site
					{
						OFFSET 0.000000 0.000000 0.000000
					}
				}
			}
		}
	}
	JOINT joint_5
	{
		OFFSET -1.305520 -1.794630 0.839290
		CHANNELS 3 Zrotation Yrotation Xrotation
		JOINT joint_6
		{
			OFFSET -2.542530 -6.985550 0.000000
			CHANNELS 3 Zrotation Yrotation Xrotation
			JOINT joint_7
			{
				OFFSET -2.568260 -7.056230 0.000000
				CHANNELS 3 Zrotation Yrotation Xrotation
				JOINT joint_8
				{
					OFFSET -0.164730 -0.452590 2.363150
					CHANNELS 3 Zrotation Yrotation Xrotation
					End Site
					{
						OFFSET 0.000000 0.000000 0.000000
					}
				}
			}
		}
	}
	JOINT joint_9
	{
		OFFSET 0.028270 2.035590 -0.193380
		CHANNELS 3 Zrotation Yrotation Xrotation
		JOINT joint_10
		{
			OFFSET 0.056720 2.048850 -0.042750
			CHANNELS 3 Zrotation Yrotation Xrotation
			JOINT joint_11
			{
				OFFSET -0.054170 1.746240 0.172020
				CHANNELS 3 Zrotation Yrotation Xrotation
				JOINT joint_12
				{
					OFFSET 0.104070 1.761360 -0.123970
					CHANNELS 3 Zrotation Yrotation Xrotation
					End Site
					{
						OFFSET 0.000000 0.000000 0.000000
					}
				}
			}
			JOINT joint_13
			{
				OFFSET 3.362410 1.200890 -0.311210
				CHANNELS 3 Zrotation Yrotation Xrotation
				JOINT joint_14
				{
					OFFSET 4.983000 -0.000000 -0.000000
					CHANNELS 3 Zrotation Yrotation Xrotation
					JOINT joint_15
					{
						OFFSET 3.483560 -0.000000 -0.000000
						CHANNELS 3 Zrotation Yrotation Xrotation
						JOINT joint_16
						{
							OFFSET 0.000000 0.000000 0.000000
							CHANNELS 3 Zrotation Yrotation Xrotation
							End Site
							{
								OFFSET 0.000000 0.000000 0.000000
							}
						}
					}
				}
			}
			JOINT joint_17
			{
				OFFSET -3.136600 1.374050 -0.404650
				CHANNELS 3 Zrotation Yrotation Xrotation
				JOINT joint_18
				{
					OFFSET -5.241900 -0.000000 -0.000000
					CHANNELS 3 Zrotation Yrotation Xrotation
					JOINT joint_19
					{
						OFFSET -3.444170 -0.000000 -0.000000
						CHANNELS 3 Zrotation Yrotation Xrotation
						JOINT joint_20
						{
							OFFSET 0.000000 0.000000 0.000000
							CHANNELS 3 Zrotation Yrotation Xrotation
							End Site
							{
								OFFSET 0.000000 0.000000 0.000000
							}
						}
					}
				}
			}
		}
	}
}
MOTION
Frames: 6
Frame Time: 0.031667
0.383414 16.863363 -1.810240 -1.405944 0.763194 0.967095 -18.879706 0.088127 -5.109712 0.238256 2.726899 4.201186 0.261980 -1.170087 -3.666315 2.847315 -4.059931 1.511177 28.173454 0.697746 6.889217 2.337853 4.273323 -3.206852 -0.677755 -3.258082 -1.046980 -4.133921 -3.103869 -2.262690 5.115458 3.534572 -6.239586 1.450554 -4.067229 15.634265 3.117111 2.349346 13.062707 4.166366 1.167442 9.249166 -10.986607 -1.890364 3.588634 3.036020 -4.231519 -25.884513 12.017760 1.559286 -0.999310 -4.780727 -4.041107 2.559976 15.160109 -0.570935 -2.048136 -10.494151 9.279699 -46.172711 -12.792803 -12.605785 1.279816 2.845754 -0.855100 -0.924098 
0.383318 16.859610 -1.817252 -1.379972 0.747692 0.969901 -17.741707 4.928588 4.063632 -0.194857 -6.261520 0.459979 -0.643979 -5.060324 -4.892510 1.484751 2.455509 2.408190 27.511749 -5.564890 3.699580 -6.999567 -0.657667 1.927038 1.695521 0.945463 -6.319184 -3.804106 -1.573799 -3.599970 -3.711660 -0.135180 -12.495138 2.623738 1.544409 13.110092 6.548096 3.554665 22.683005 -4.253344 -0.550693 5.621327 -16.523507 1.282284 2.069966 6.975207 -2.327756 -24.332169 10.599403 3.959146 0.433134 3.577437 -4.519809 1.503331 15.920719 2.235638 -2.075546 -12.692586 6.673925 -43.873606 -10.213176 -11.397975 -5.298200 -0.849335 4.932024 -3.184952 
0.359751 16.856756 -1.922252 -1.278687 2.231196 1.264987 -22.576711 -0.115975 -1.370028 2.897091 -3.631630 3.531656 -0.796844 3.012609 -2.989377 -1.497121 -6.455486 -1.542002 31.194533 0.930388 5.507498 -0.738838 3.553678 0.084912 5.154108 -0.739864 -4.840370 -1.738800 -0.917471 -0.914203 4.414845 3.765465 -13.570056 0.561168 -2.682438 18.539208 5.208563 3.387752 22.354518 -1.734878 4.558670 15.251480 -17.374854 1.556943 0.418569 8.759758 -3.590400 -24.236088 5.583382 1.075567 3.001844 -2.618865 -0.784014 3.866144 13.199517 6.981639 -0.501452 -9.483194 4.220765 -47.382392 -13.331924 -9.619479 -3.696899 -4.584106 -0.726099 -3.915365 
0.356616 16.846096 -1.948889 -0.875224 1.924792 0.723241 -16.809496 3.592364 3.459615 -1.850499 1.678043 7.568064 -1.274144 -4.354114 2.360636 1.651436 -5.760287 -0.912849 25.035554 -2.139582 1.217471 -2.538464 -3.690350 -1.067677 -1.858073 -1.562576 -10.816077 2.348056 3.250181 4.680520 4.837426 -2.721227 -13.009036 1.240115 -0.665898 16.773681 1.504503 0.724556 15.467973 -3.607792 4.687595 7.257382 -13.727820 -5.729147 2.394548 5.323924 -8.093914 -27.989066 13.124571 3.114997 -2.469669 -2.070661 -2.943693 -4.777358 13.488615 0.168130 -4.276073 -16.401902 5.264920 -44.079071 -16.171989 -11.661464 -1.036371 -1.184184 4.316773 -1.330578 
0.352688 16.855104 -1.909324 -1.206381 1.764283 0.913657 -22.573801 0.501153 -4.482857 3.591116 -2.631753 1.753657 1.542304 -1.738903 2.087886 -0.114265 -1.108864 -4.824657 23.968634 -3.140260 4.023919 -5.447301 -0.838947 -3.231664 -3.377163 4.766672 -9.230625 0.824916 1.326809 1.692157 5.042664 2.753553 -6.027469 2.509374 2.892801 13.236198 2.778144 4.522332 24.883336 3.484721 -6.146863 3.625728 -11.153445 -7.503480 4.296710 9.707739 -10.592341 -28.081746 5.485443 0.646850 3.944332 3.413613 -4.348676 -3.739027 8.133986 -0.820815 4.400261 -9.690080 5.089886 -42.256776 -8.771133 -15.658546 3.132906 2.477852 1.489275 -2.291942 
0.353326 16.855556 -1.907733 -1.240121 1.724975 0.923689 -25.357859 6.073324 -3.058025 -0.076511 -0.514198 1.067982 -4.467007 4.184494 -3.254241 -2.504553 1.020778 -3.927367 27.635966 -0.378526 -0.587788 -0.237150 0.630493 2.328944 -0.136667 -1.983067 -2.983932 2.186844 -1.748223 0.586437 1.624919 -1.338733 -11.312210 -2.698237 -5.450222 16.550433 4.632150 4.344581 25.367942 8.080577 -7.093804 7.880020 -18.523196 -7.806827 1.386857 3.409180 -1.410447 -25.330323 3.835250 9.168207 -5.033834 3.434729 -2.097799 3.188369 10.600796 3.554033 -1.262457 -16.705364 12.034823 -42.500079 -11.916123 -10.506346 -3.320018 -0.130648 -0.928539 3.187650 
